<svg width="125" height="30" viewBox="0 0 125 30" fill="none" xmlns="http://www.w3.org/2000/svg">
<path d="M29.75 8.03906C29.8125 7.74219 29.9219 7.52344 30.0781 7.38281C30.25 7.24219 30.4531 7.15625 30.6875 7.125C31.1094 7.125 31.4219 7.40625 31.625 7.96875C31.8281 9.9375 31.9922 11.8906 32.1172 13.8281C32.2578 15.7656 32.5 17.6328 32.8438 19.4297C33.3906 19.4297 33.9453 19.4375 34.5078 19.4531C35.0859 19.4531 35.6719 19.4531 36.2656 19.4531C37.2656 19.4531 38.2734 19.4297 39.2891 19.3828C39.6016 19.4766 39.8281 19.6172 39.9688 19.8047C40.1094 19.9766 40.1797 20.1641 40.1797 20.3672C40.1484 20.6016 40.0625 20.8047 39.9219 20.9766C39.7812 21.1484 39.5625 21.2578 39.2656 21.3047C38.4688 21.3359 37.6641 21.3906 36.8516 21.4688C36.0547 21.5625 35.2578 21.6094 34.4609 21.6094C34.1953 21.6094 33.8906 21.6016 33.5469 21.5859C33.2188 21.5703 32.8984 21.5312 32.5859 21.4688C32.2734 21.4062 31.9844 21.3125 31.7188 21.1875C31.4531 21.0625 31.2578 20.8906 31.1328 20.6719C30.9297 19.8125 30.7812 18.9766 30.6875 18.1641C30.5938 17.3359 30.5078 16.5 30.4297 15.6562C30.2891 14.3906 30.1719 13.125 30.0781 11.8594C29.9844 10.5938 29.875 9.32031 29.75 8.03906ZM44.0234 14.8125C43.9922 14.8281 43.9766 14.8438 43.9766 14.8594H44.0234C44.1328 14.8594 44.2422 14.8906 44.3516 14.9531C44.4609 15 44.5547 15.0625 44.6328 15.1406C44.7109 15.2031 44.7734 15.2656 44.8203 15.3281C44.8828 15.375 44.9219 15.3984 44.9375 15.3984C45.1719 15.5078 45.4297 15.5625 45.7109 15.5625C46.1641 15.5625 46.5469 15.5 46.8594 15.375C47.1719 15.2344 47.3281 14.9062 47.3281 14.3906C47.2344 14.0781 47.125 13.8203 47 13.6172C46.8906 13.4141 46.7031 13.2188 46.4375 13.0312L45.9453 12.8203H45.6172C45.4922 12.8203 45.3281 12.8516 45.125 12.9141C44.9219 12.9766 44.7188 13.0625 44.5156 13.1719C44.4531 13.2656 44.3906 13.4062 44.3281 13.5938C44.2656 13.7656 44.2109 13.9375 44.1641 14.1094C44.1172 14.2812 44.0781 14.4375 44.0469 14.5781C44.0312 14.7188 44.0234 14.7969 44.0234 14.8125ZM44.2109 17.0859L44.1406 16.8281C44.3281 17.6562 44.7812 18.3359 45.5 18.8672C45.6562 18.9922 45.8516 19.1016 46.0859 19.1953C46.3359 19.2891 46.5781 19.375 46.8125 19.4531C47.0625 19.5312 47.2812 19.5938 47.4688 19.6406C47.6562 19.6719 47.7734 19.6875 47.8203 19.6875C47.9766 19.5469 48.1719 19.4766 48.4062 19.4766C48.6875 19.5078 48.9062 19.625 49.0625 19.8281C49.2188 20.0156 49.2969 20.2188 49.2969 20.4375C49.2969 20.7812 49.1328 21.0547 48.8047 21.2578C48.4922 21.4766 48.1562 21.5859 47.7969 21.5859C47.0312 21.5859 46.3047 21.4297 45.6172 21.1172C44.9297 20.8203 44.3281 20.4141 43.8125 19.8984C43.2969 19.3828 42.875 18.7891 42.5469 18.1172C42.2344 17.4453 42.0625 16.7344 42.0312 15.9844C42.0312 15.4688 42.0703 14.9141 42.1484 14.3203C42.2266 13.7266 42.3906 13.1797 42.6406 12.6797C42.8906 12.1641 43.25 11.7344 43.7188 11.3906C44.2031 11.0469 44.8438 10.875 45.6406 10.875C46.1406 10.875 46.6094 10.9844 47.0469 11.2031C47.4844 11.4062 47.8594 11.6875 48.1719 12.0469C48.5 12.4062 48.7578 12.8203 48.9453 13.2891C49.1328 13.7422 49.2266 14.2188 49.2266 14.7188C49.2266 15.1719 49.1406 15.5703 48.9688 15.9141C48.8125 16.2578 48.5938 16.5469 48.3125 16.7812C48.0312 17 47.6953 17.1719 47.3047 17.2969C46.9297 17.4062 46.5312 17.4609 46.1094 17.4609C45.9375 17.4609 45.7422 17.4453 45.5234 17.4141C45.3203 17.3828 45.125 17.3516 44.9375 17.3203C44.75 17.2734 44.5859 17.2344 44.4453 17.2031C44.3203 17.1562 44.2422 17.1172 44.2109 17.0859ZM57.4062 17.7188L57.2422 17.6953C57.0078 17.6484 56.7891 17.5703 56.5859 17.4609C56.3984 17.3516 56.2109 17.2422 56.0234 17.1328C55.8359 17.0234 55.6562 16.9297 55.4844 16.8516C55.3125 16.7578 55.1406 16.7109 54.9688 16.7109C54.4219 16.7734 53.9453 16.9609 53.5391 17.2734C53.1484 17.5859 52.9531 17.9609 52.9531 18.3984C52.9531 18.5234 52.9844 18.6562 53.0469 18.7969C53.1094 18.9375 53.2109 19.1172 53.3516 19.3359C53.7578 19.5859 54.2031 19.7109 54.6875 19.7109C55.25 19.7109 55.7422 19.6562 56.1641 19.5469L56.4688 19.2422C56.625 19.0391 56.8359 18.9375 57.1016 18.9375H57.2188C57.2344 18.8125 57.25 18.6875 57.2656 18.5625C57.2812 18.4375 57.3047 18.3125 57.3359 18.1875L57.4062 17.7188ZM57.7578 20.5547L57.2188 21.0703C57.0156 21.2578 56.6875 21.3906 56.2344 21.4688C55.7969 21.5625 55.3359 21.6094 54.8516 21.6094C54.1953 21.6094 53.6328 21.5391 53.1641 21.3984C52.7109 21.2578 52.3125 20.9844 51.9688 20.5781C51.4062 19.8281 51.125 19.125 51.125 18.4688C51.125 18.0312 51.2109 17.6016 51.3828 17.1797C51.5703 16.7422 51.8281 16.3516 52.1562 16.0078C52.4844 15.6641 52.8828 15.3828 53.3516 15.1641C53.8359 14.9453 54.375 14.8359 54.9688 14.8359C55.2188 14.8672 55.4609 14.9219 55.6953 15C55.9297 15.0781 56.1484 15.1641 56.3516 15.2578C56.5547 15.3516 56.7344 15.4453 56.8906 15.5391C57.0625 15.6172 57.1953 15.6797 57.2891 15.7266L57.1484 15.0938C57.0703 14.8438 56.9766 14.6016 56.8672 14.3672C56.7578 14.1172 56.625 13.875 56.4688 13.6406L56 13.2188C55.875 13.1875 55.7578 13.1484 55.6484 13.1016C55.5391 13.0391 55.3984 13.0078 55.2266 13.0078C54.7734 13.0391 54.3281 13.1016 53.8906 13.1953C53.4531 13.2734 53.0156 13.3906 52.5781 13.5469C52.5312 13.5625 52.4609 13.5703 52.3672 13.5703C52.0391 13.5703 51.7812 13.4766 51.5938 13.2891C51.4219 13.1016 51.3359 12.8984 51.3359 12.6797C51.3359 12.4922 51.3828 12.3281 51.4766 12.1875C51.5703 12.0312 51.75 11.875 52.0156 11.7188C52.4219 11.5938 52.8672 11.4609 53.3516 11.3203C53.8516 11.1641 54.3516 11.0859 54.8516 11.0859C55.7109 11.0859 56.4219 11.2578 56.9844 11.6016C57.5625 11.9453 58.0156 12.3984 58.3438 12.9609C58.6875 13.5078 58.9219 14.1172 59.0469 14.7891C59.1875 15.4609 59.2578 16.125 59.2578 16.7812C59.2578 17.1719 59.2422 17.5938 59.2109 18.0469C59.1953 18.4844 59.1406 18.8984 59.0469 19.2891C58.9688 19.6641 58.8516 19.9766 58.6953 20.2266C58.5391 20.4766 58.3281 20.6016 58.0625 20.6016C58 20.6016 57.9375 20.6016 57.875 20.6016C57.8125 20.5859 57.7734 20.5703 57.7578 20.5547ZM62.1172 20.3203C62.1172 19.8984 62.125 19.4609 62.1406 19.0078C62.1719 18.5547 62.2266 18.125 62.3047 17.7188L62.4688 15.9844L62.6797 14.7188C62.7266 14.5156 62.75 14.3281 62.75 14.1562C62.75 13.9688 62.7109 13.7734 62.6328 13.5703C62.5703 13.3672 62.3906 13.2656 62.0938 13.2656C61.9688 13.2656 61.8438 13.2344 61.7188 13.1719C61.6094 13.0938 61.5078 13.0078 61.4141 12.9141C61.3203 12.8047 61.2422 12.6953 61.1797 12.5859C61.1328 12.4766 61.1094 12.375 61.1094 12.2812C61.1094 12.0938 61.2031 11.8906 61.3906 11.6719C61.5781 11.4531 61.8359 11.3438 62.1641 11.3438C62.9766 11.4219 63.5703 11.6484 63.9453 12.0234C64.3203 12.3984 64.5078 12.8594 64.5078 13.4062C64.9766 13.0781 65.5234 12.8359 66.1484 12.6797C66.7734 12.5078 67.5156 12.3906 68.375 12.3281C68.7188 12.3281 68.9844 12.4219 69.1719 12.6094C69.3594 12.7812 69.4531 13 69.4531 13.2656C69.4531 13.5 69.375 13.7109 69.2188 13.8984C69.0625 14.0703 68.8516 14.1797 68.5859 14.2266C67.8672 14.2734 67.2578 14.3516 66.7578 14.4609C66.2578 14.5703 65.8359 14.75 65.4922 15C65.1484 15.2344 64.8828 15.5547 64.6953 15.9609C64.5078 16.3672 64.3672 16.8906 64.2734 17.5312L64.2031 17.8828V18.8438C64.1875 19.0781 64.1719 19.3203 64.1562 19.5703C64.1562 19.8047 64.1406 20.0469 64.1094 20.2969L64.0391 20.7188L63.8984 21.0938C63.6484 21.3906 63.3594 21.5391 63.0312 21.5391C62.4688 21.5391 62.1641 21.2109 62.1172 20.5547V20.3203ZM71.4688 11.8828C71.5312 11.8672 71.6016 11.8594 71.6797 11.8594C71.7578 11.8594 71.8516 11.8516 71.9609 11.8359H71.9844C72.5469 11.8359 72.9766 11.9297 73.2734 12.1172C73.5859 12.2891 73.8516 12.5859 74.0703 13.0078C74.3828 12.6953 74.7031 12.4766 75.0312 12.3516C75.3594 12.2109 75.7031 12.1406 76.0625 12.1406C76.6719 12.1406 77.2188 12.2969 77.7031 12.6094C78.1875 12.9062 78.5938 13.3047 78.9219 13.8047C79.2656 14.3047 79.5234 14.8906 79.6953 15.5625C79.8828 16.2188 79.9766 16.8984 79.9766 17.6016C79.9766 18.2578 79.9219 18.8984 79.8125 19.5234C79.7188 20.1484 79.6484 20.7422 79.6016 21.3047C79.4297 21.7109 79.1328 21.9609 78.7109 22.0547H78.6172C78.3984 22.0234 78.1797 21.9375 77.9609 21.7969C77.7578 21.6562 77.6562 21.4062 77.6562 21.0469L77.6797 20.8125C77.6953 20.7344 77.7109 20.6719 77.7266 20.625C77.7422 20.5625 77.7578 20.5078 77.7734 20.4609L77.9141 19.4297C77.9453 19.1484 77.9688 18.8672 77.9844 18.5859C78.0156 18.3047 78.0312 18.0156 78.0312 17.7188C78.0312 17.4062 78 17.0391 77.9375 16.6172C77.8906 16.1953 77.7891 15.7969 77.6328 15.4219C77.4766 15.0312 77.2578 14.7031 76.9766 14.4375C76.6953 14.1719 76.3281 14.0391 75.875 14.0391C75.7031 14.1328 75.5078 14.2422 75.2891 14.3672C75.0703 14.4922 74.8672 14.5547 74.6797 14.5547H74.5859C74.5391 14.5547 74.5156 14.5703 74.5156 14.6016C74.5156 14.6172 74.5156 14.625 74.5156 14.625C74.5312 14.625 74.5391 14.6328 74.5391 14.6484C74.6172 15.1016 74.6719 15.5703 74.7031 16.0547C74.75 16.5391 74.7734 17.0312 74.7734 17.5312C74.7734 17.9219 74.7578 18.375 74.7266 18.8906C74.7109 19.3906 74.6562 19.875 74.5625 20.3438C74.4688 20.7969 74.3281 21.1797 74.1406 21.4922C73.9688 21.8203 73.7188 21.9844 73.3906 21.9844C73.1562 21.9844 72.9297 21.9062 72.7109 21.75C72.5078 21.5938 72.4062 21.3359 72.4062 20.9766C72.4062 20.8828 72.4141 20.8125 72.4297 20.7656C72.7266 19.7344 72.875 18.5859 72.875 17.3203C72.875 15.9922 72.75 14.875 72.5 13.9688L72.4297 13.875C72.2734 13.8594 72.1016 13.8281 71.9141 13.7812C71.7422 13.7344 71.5781 13.6719 71.4219 13.5938C71.2656 13.5 71.1328 13.3906 71.0234 13.2656C70.9141 13.125 70.8594 12.9531 70.8594 12.75C70.8594 12.3594 71.0625 12.0703 71.4688 11.8828ZM90.4062 15.6094C90.3281 15.625 90.2578 15.6328 90.1953 15.6328L90.3359 17.7422C90.3672 18.2266 90.3906 18.7188 90.4062 19.2188C90.4219 19.7031 90.4297 20.1953 90.4297 20.6953C90.4297 20.9609 90.3359 21.1797 90.1484 21.3516C89.9609 21.5234 89.75 21.6094 89.5156 21.6094C89.2969 21.6094 89.0781 21.5312 88.8594 21.375C88.6562 21.2344 88.5391 21 88.5078 20.6719C88.5078 19.2188 88.4375 17.75 88.2969 16.2656C88.1719 14.7656 88.1094 13.2969 88.1094 11.8594C88.1094 11.5781 88.1016 11.2656 88.0859 10.9219C88.0859 10.5625 88.1016 10.2188 88.1328 9.89062C88.1641 9.54688 88.2188 9.23438 88.2969 8.95312C88.3906 8.65625 88.5312 8.42969 88.7188 8.27344C89.2656 8.03906 89.8203 7.85156 90.3828 7.71094C90.9609 7.57031 91.5469 7.4375 92.1406 7.3125C92.7344 7.1875 93.3359 7.07031 93.9453 6.96094C94.5547 6.83594 95.1719 6.67969 95.7969 6.49219C96.1406 6.49219 96.4062 6.57812 96.5938 6.75C96.7969 6.92188 96.8984 7.14062 96.8984 7.40625C96.8984 7.78125 96.7109 8.10156 96.3359 8.36719C95.8047 8.52344 95.2734 8.65625 94.7422 8.76562C94.2266 8.85938 93.7109 8.95312 93.1953 9.04688C92.6797 9.14062 92.1641 9.24219 91.6484 9.35156C91.1484 9.44531 90.6406 9.57812 90.125 9.75C90.0938 10.0625 90.0703 10.3828 90.0547 10.7109C90.0391 11.0234 90.0312 11.3438 90.0312 11.6719V12.0703L90.1016 13.6875C91.1016 13.4375 92.1641 13.2734 93.2891 13.1953C94.4297 13.1016 95.5703 13.0547 96.7109 13.0547C96.9766 13.1484 97.1875 13.2891 97.3438 13.4766C97.5 13.6484 97.5781 13.8359 97.5781 14.0391C97.5781 14.2734 97.4922 14.4688 97.3203 14.625C97.1484 14.7812 96.9297 14.8984 96.6641 14.9766C95.5859 14.9766 94.5312 15.0078 93.5 15.0703C92.4688 15.1328 91.4375 15.3125 90.4062 15.6094ZM100.836 7.94531C100.914 7.67969 101.031 7.46875 101.188 7.3125C101.359 7.15625 101.555 7.07812 101.773 7.07812C102.242 7.07812 102.57 7.35938 102.758 7.92188C102.758 9.09375 102.75 10.2031 102.734 11.25C102.719 12.2812 102.711 13.2578 102.711 14.1797C102.711 15.7422 102.805 17.4375 102.992 19.2656C103.133 19.3125 103.305 19.3672 103.508 19.4297C103.727 19.4766 103.93 19.5547 104.117 19.6641C104.32 19.7578 104.484 19.8828 104.609 20.0391C104.75 20.1953 104.82 20.3906 104.82 20.625C104.82 20.8594 104.727 21.0625 104.539 21.2344C104.367 21.4219 104.156 21.5156 103.906 21.5156C103.734 21.5156 103.547 21.4688 103.344 21.375C102.797 21.1094 102.375 20.9297 102.078 20.8359C101.797 20.7266 101.578 20.6094 101.422 20.4844C101.281 20.3438 101.188 20.1328 101.141 19.8516C101.094 19.5547 101.047 19.0859 101 18.4453C100.891 17.8672 100.836 17.2344 100.836 16.5469C100.836 15.8594 100.836 15.1953 100.836 14.5547V7.94531ZM108.5 14.8125C108.469 14.8281 108.453 14.8438 108.453 14.8594H108.5C108.609 14.8594 108.719 14.8906 108.828 14.9531C108.938 15 109.031 15.0625 109.109 15.1406C109.188 15.2031 109.25 15.2656 109.297 15.3281C109.359 15.375 109.398 15.3984 109.414 15.3984C109.648 15.5078 109.906 15.5625 110.188 15.5625C110.641 15.5625 111.023 15.5 111.336 15.375C111.648 15.2344 111.805 14.9062 111.805 14.3906C111.711 14.0781 111.602 13.8203 111.477 13.6172C111.367 13.4141 111.18 13.2188 110.914 13.0312L110.422 12.8203H110.094C109.969 12.8203 109.805 12.8516 109.602 12.9141C109.398 12.9766 109.195 13.0625 108.992 13.1719C108.93 13.2656 108.867 13.4062 108.805 13.5938C108.742 13.7656 108.688 13.9375 108.641 14.1094C108.594 14.2812 108.555 14.4375 108.523 14.5781C108.508 14.7188 108.5 14.7969 108.5 14.8125ZM108.688 17.0859L108.617 16.8281C108.805 17.6562 109.258 18.3359 109.977 18.8672C110.133 18.9922 110.328 19.1016 110.562 19.1953C110.812 19.2891 111.055 19.375 111.289 19.4531C111.539 19.5312 111.758 19.5938 111.945 19.6406C112.133 19.6719 112.25 19.6875 112.297 19.6875C112.453 19.5469 112.648 19.4766 112.883 19.4766C113.164 19.5078 113.383 19.625 113.539 19.8281C113.695 20.0156 113.773 20.2188 113.773 20.4375C113.773 20.7812 113.609 21.0547 113.281 21.2578C112.969 21.4766 112.633 21.5859 112.273 21.5859C111.508 21.5859 110.781 21.4297 110.094 21.1172C109.406 20.8203 108.805 20.4141 108.289 19.8984C107.773 19.3828 107.352 18.7891 107.023 18.1172C106.711 17.4453 106.539 16.7344 106.508 15.9844C106.508 15.4688 106.547 14.9141 106.625 14.3203C106.703 13.7266 106.867 13.1797 107.117 12.6797C107.367 12.1641 107.727 11.7344 108.195 11.3906C108.68 11.0469 109.32 10.875 110.117 10.875C110.617 10.875 111.086 10.9844 111.523 11.2031C111.961 11.4062 112.336 11.6875 112.648 12.0469C112.977 12.4062 113.234 12.8203 113.422 13.2891C113.609 13.7422 113.703 14.2188 113.703 14.7188C113.703 15.1719 113.617 15.5703 113.445 15.9141C113.289 16.2578 113.07 16.5469 112.789 16.7812C112.508 17 112.172 17.1719 111.781 17.2969C111.406 17.4062 111.008 17.4609 110.586 17.4609C110.414 17.4609 110.219 17.4453 110 17.4141C109.797 17.3828 109.602 17.3516 109.414 17.3203C109.227 17.2734 109.062 17.2344 108.922 17.2031C108.797 17.1562 108.719 17.1172 108.688 17.0859ZM115.766 12.6797C115.672 12.4922 115.625 12.3047 115.625 12.1172C115.625 11.8828 115.711 11.6797 115.883 11.5078C116.07 11.3203 116.289 11.2266 116.539 11.2266C116.758 11.2266 116.984 11.2969 117.219 11.4375C117.672 11.9375 118.102 12.4141 118.508 12.8672C118.914 13.3203 119.305 13.75 119.68 14.1562C119.82 13.9219 120.016 13.6016 120.266 13.1953C120.516 12.7734 120.781 12.3594 121.062 11.9531C121.359 11.5312 121.656 11.1719 121.953 10.875C122.25 10.5625 122.516 10.4062 122.75 10.4062C122.984 10.4062 123.195 10.4766 123.383 10.6172C123.586 10.7578 123.688 10.9844 123.688 11.2969C123.688 11.5 123.656 11.6719 123.594 11.8125C123.141 12.4062 122.703 13.0156 122.281 13.6406C121.875 14.25 121.477 14.8672 121.086 15.4922L121.016 15.5859C121.469 16.0703 121.93 16.6016 122.398 17.1797C122.883 17.7578 123.391 18.3984 123.922 19.1016C124.078 19.3203 124.156 19.5312 124.156 19.7344C124.156 20 124.055 20.2188 123.852 20.3906C123.664 20.5625 123.445 20.6484 123.195 20.6484C123.008 20.6484 122.773 20.5156 122.492 20.25C122.211 19.9844 121.922 19.6719 121.625 19.3125C121.328 18.9531 121.039 18.5859 120.758 18.2109C120.477 17.8203 120.242 17.5156 120.055 17.2969C119.883 17.6094 119.664 17.9844 119.398 18.4219C119.148 18.8438 118.867 19.2578 118.555 19.6641C118.258 20.0703 117.945 20.4141 117.617 20.6953C117.289 20.9766 116.977 21.1172 116.68 21.1172C116.477 21.1172 116.281 21.0312 116.094 20.8594C115.906 20.6719 115.812 20.4609 115.812 20.2266C115.812 19.9453 115.953 19.6719 116.234 19.4062C116.438 19.2656 116.656 19.0547 116.891 18.7734C117.125 18.4766 117.352 18.1641 117.57 17.8359C117.789 17.4922 117.992 17.1484 118.18 16.8047C118.383 16.4453 118.555 16.125 118.695 15.8438L115.766 12.6797Z" fill="white"/>
<path d="M1 8C1 7.73478 1.10536 7.48043 1.29289 7.29289C1.48043 7.10536 1.73478 7 2 7H16C16.2652 7 16.5196 7.10536 16.7071 7.29289C16.8946 7.48043 17 7.73478 17 8V10C17 10.2652 16.8946 10.5196 16.7071 10.7071C16.5196 10.8946 16.2652 11 16 11H2C1.73478 11 1.48043 10.8946 1.29289 10.7071C1.10536 10.5196 1 10.2652 1 10V8ZM1 16C1 15.7348 1.10536 15.4804 1.29289 15.2929C1.48043 15.1054 1.73478 15 2 15H8C8.26522 15 8.51957 15.1054 8.70711 15.2929C8.89464 15.4804 9 15.7348 9 16V22C9 22.2652 8.89464 22.5196 8.70711 22.7071C8.51957 22.8946 8.26522 23 8 23H2C1.73478 23 1.48043 22.8946 1.29289 22.7071C1.10536 22.5196 1 22.2652 1 22V16ZM13 16C13 15.7348 13.1054 15.4804 13.2929 15.2929C13.4804 15.1054 13.7348 15 14 15H16C16.2652 15 16.5196 15.1054 16.7071 15.2929C16.8946 15.4804 17 15.7348 17 16V22C17 22.2652 16.8946 22.5196 16.7071 22.7071C16.5196 22.8946 16.2652 23 16 23H14C13.7348 23 13.4804 22.8946 13.2929 22.7071C13.1054 22.5196 13 22.2652 13 22V16Z" stroke="#3B82F6" stroke-width="1.5" stroke-linecap="round" stroke-linejoin="round"/>
</svg>
